<svg width="19" height="19" viewBox="0 0 19 19" fill="none" xmlns="http://www.w3.org/2000/svg">
<path d="M9.5 19C14.7467 19 19 14.7467 19 9.5C19 4.25329 14.7467 0 9.5 0C4.25329 0 0 4.25329 0 9.5C0 11.0197 0.356836 12.4561 0.991287 13.7298C1.15989 14.0684 1.21601 14.4553 1.11826 14.8206L0.552435 16.9353C0.306807 17.8533 1.14666 18.6932 2.06468 18.4476L4.17942 17.8817C4.54474 17.784 4.93165 17.8401 5.27015 18.0087C6.54395 18.6432 7.9803 19 9.5 19Z" fill="white"/>
<path d="M12.35 9.5C12.35 10.0247 12.7753 10.45 13.3 10.45C13.8247 10.45 14.25 10.0247 14.25 9.5C14.25 8.97533 13.8247 8.55 13.3 8.55C12.7753 8.55 12.35 8.97533 12.35 9.5Z" fill="#287EFF"/>
<path d="M8.55 9.5C8.55 10.0247 8.97533 10.45 9.5 10.45C10.0247 10.45 10.45 10.0247 10.45 9.5C10.45 8.97533 10.0247 8.55 9.5 8.55C8.97533 8.55 8.55 8.97533 8.55 9.5Z" fill="#287EFF"/>
<path d="M4.75 9.5C4.75 10.0247 5.17533 10.45 5.7 10.45C6.22467 10.45 6.65 10.0247 6.65 9.5C6.65 8.97533 6.22467 8.55 5.7 8.55C5.17533 8.55 4.75 8.97533 4.75 9.5Z" fill="#287EFF"/>
</svg>
