<svg width="18" height="18" viewBox="0 0 18 18" fill="none" xmlns="http://www.w3.org/2000/svg">
<path d="M18 8.81811V10.8C18 14.1941 18 15.8912 16.9456 16.9456C15.8912 18 14.1941 18 10.8 18H7.20001C3.8059 18 2.10883 18 1.05442 16.9456C0.177525 16.0687 0.0298888 14.7473 0.00503219 12.375H7.82429L5.79052 13.8542C5.48903 14.0734 5.42237 14.4956 5.64164 14.7971C5.86091 15.0986 6.28306 15.1652 6.58455 14.9459L10.297 12.2459C10.4717 12.1189 10.575 11.916 10.575 11.7C10.575 11.4841 10.4717 11.2812 10.297 11.1542L6.58455 8.45415C6.28306 8.23489 5.86091 8.30154 5.64164 8.60303C5.42237 8.90452 5.48903 9.32668 5.79052 9.54594L7.82429 11.025H1.17734e-05L0 10.8L2.44617e-05 4.45477C2.44617e-05 3.66052 2.44617e-05 3.26335 0.0624383 2.93255C0.337199 1.47628 1.4763 0.337176 2.93256 0.0624151C3.26337 0 3.66051 0 4.45479 0C4.8028 0 4.9768 0 5.14403 0.0156377C5.865 0.0830576 6.54888 0.366332 7.10636 0.828463C7.23566 0.935653 7.3587 1.05869 7.60478 1.30477L8.10001 1.8C8.83421 2.5342 9.20131 2.9013 9.64091 3.14588C9.8824 3.28024 10.1386 3.38634 10.4043 3.4621C10.8881 3.6 11.4073 3.6 12.4456 3.6H12.7819C15.151 3.6 16.3356 3.6 17.1056 4.29252C17.1764 4.35622 17.2438 4.42362 17.3075 4.49445C18 5.26442 18 6.44898 18 8.81811Z" fill="#283047"/>
</svg>
