<svg width="18" height="18" viewBox="0 0 18 18" fill="none" xmlns="http://www.w3.org/2000/svg">
<path d="M4.9675 3.38092C3.86403 3.4012 3.22906 3.49458 2.79917 3.92446C2.25 4.47364 2.25 5.35752 2.25 7.12529V10.8753C2.25 12.6431 2.25 13.5269 2.79917 14.0761C3.22906 14.506 3.86403 14.5994 4.96749 14.6197C4.96747 14.6195 4.96752 14.6199 4.96749 14.6197C4.87498 13.9315 4.87495 13.0717 4.875 12.0744V5.92625C4.87495 4.92895 4.87498 4.06904 4.9675 3.38092C4.96753 3.38071 4.96747 3.38113 4.9675 3.38092Z" fill="white"/>
<path fill-rule="evenodd" clip-rule="evenodd" d="M6.65901 2.15901C6 2.81802 6 3.87868 6 6V12C6 14.1213 6 15.182 6.65901 15.841C7.31802 16.5 8.37868 16.5 10.5 16.5H11.25C13.3713 16.5 14.432 16.5 15.091 15.841C15.75 15.182 15.75 14.1213 15.75 12V6C15.75 3.87868 15.75 2.81802 15.091 2.15901C14.432 1.5 13.3713 1.5 11.25 1.5H10.5C8.37868 1.5 7.31802 1.5 6.65901 2.15901ZM11.2727 5.60225C11.0531 5.38258 10.6969 5.38258 10.4773 5.60225L8.60225 7.47725C8.38258 7.69692 8.38258 8.05308 8.60225 8.27275C8.82192 8.49242 9.17808 8.49242 9.39775 8.27275L10.3125 7.358V12C10.3125 12.3107 10.5643 12.5625 10.875 12.5625C11.1857 12.5625 11.4375 12.3107 11.4375 12V7.358L12.3523 8.27275C12.5719 8.49242 12.9281 8.49242 13.1477 8.27275C13.3674 8.05308 13.3674 7.69692 13.1477 7.47725L11.2727 5.60225Z" fill="white"/>
</svg>
