<svg width="15" height="18" viewBox="0 0 15 18" fill="none" xmlns="http://www.w3.org/2000/svg">
<path fill-rule="evenodd" clip-rule="evenodd" d="M0 2.46254V15.2581C0 16.7724 1.2592 18 2.8125 18H12.1875C13.7408 18 15 16.7724 15 15.2581V6.11841C15 4.6041 13.7408 3.37651 12.1875 3.37651H0.9375C0.419733 3.37651 0 2.96731 0 2.46254ZM3.04688 8.86032C3.04688 8.48174 3.36167 8.17484 3.75 8.17484H11.25C11.6383 8.17484 11.9531 8.48174 11.9531 8.86032C11.9531 9.23889 11.6383 9.54579 11.25 9.54579H3.75C3.36167 9.54579 3.04688 9.23889 3.04688 8.86032ZM3.04688 12.0592C3.04688 11.6806 3.36167 11.3737 3.75 11.3737H8.90625C9.29457 11.3737 9.60938 11.6806 9.60938 12.0592C9.60938 12.4378 9.29457 12.7447 8.90625 12.7447H3.75C3.36167 12.7447 3.04688 12.4378 3.04688 12.0592Z" fill="white"/>
<path d="M0.383236 1.62817C0.709938 1.77101 0.9375 2.09087 0.9375 2.46254H12.1875C12.5112 2.46254 12.8254 2.50253 13.125 2.57771V1.82828C13.125 0.71589 12.1144 -0.138601 10.9848 0.0187151L0.86212 1.42852C0.681676 1.45365 0.518162 1.52457 0.383236 1.62817Z" fill="white"/>
</svg>
