<svg width="17" height="18" viewBox="0 0 17 18" fill="none" xmlns="http://www.w3.org/2000/svg">
<path d="M17 2.90153C17 4.3422 15.8583 5.51009 14.45 5.51009C13.0417 5.51009 11.9 4.3422 11.9 2.90153C11.9 1.46086 13.0417 0.292969 14.45 0.292969C15.8583 0.292969 17 1.46086 17 2.90153Z" fill="white"/>
<path fill-rule="evenodd" clip-rule="evenodd" d="M3.6125 10.7272C3.6125 10.367 3.89792 10.0751 4.25 10.0751H11.9C12.2521 10.0751 12.5375 10.367 12.5375 10.7272C12.5375 11.0874 12.2521 11.3793 11.9 11.3793H4.25C3.89792 11.3793 3.6125 11.0874 3.6125 10.7272Z" fill="white"/>
<path fill-rule="evenodd" clip-rule="evenodd" d="M1.2448 16.41C2.48959 17.6834 4.49306 17.6834 8.5 17.6834C12.5069 17.6834 14.5104 17.6834 15.7552 16.41C17 15.1366 17 13.0871 17 8.98817C17 7.77191 17 6.7361 16.9675 5.84747C16.2948 6.44953 15.414 6.81437 14.45 6.81437C12.3375 6.81437 10.625 5.06253 10.625 2.90153C10.625 1.91535 10.9816 1.01438 11.5702 0.326236C10.7015 0.292969 9.68895 0.292969 8.5 0.292969C4.49306 0.292969 2.48959 0.292969 1.2448 1.56635C0 2.83973 0 4.88921 0 8.98817C0 13.0871 0 15.1366 1.2448 16.41ZM3.6125 13.7705C3.6125 13.4104 3.89792 13.1184 4.25 13.1184H9.35C9.70208 13.1184 9.9875 13.4104 9.9875 13.7705C9.9875 14.1307 9.70208 14.4227 9.35 14.4227H4.25C3.89792 14.4227 3.6125 14.1307 3.6125 13.7705Z" fill="white"/>
</svg>
