<svg width="16" height="18" viewBox="0 0 16 18" fill="none" xmlns="http://www.w3.org/2000/svg">
<path fill-rule="evenodd" clip-rule="evenodd" d="M9.39901 0.137593C9.09039 0.0078125 8.69915 0.0078125 7.91667 0.0078125C7.13418 0.0078125 6.74294 0.0078125 6.43433 0.137593C6.02284 0.310635 5.69591 0.642542 5.52546 1.0603C5.44766 1.251 5.41721 1.47278 5.40529 1.79629C5.38778 2.2717 5.14763 2.71176 4.7418 2.94963C4.33598 3.1875 3.84053 3.17861 3.42624 2.9563C3.14432 2.80502 2.93991 2.7209 2.73832 2.69396C2.29674 2.63494 1.85015 2.75643 1.4968 3.0317C1.23178 3.23815 1.03616 3.58213 0.644919 4.27011C0.253678 4.95808 0.0580575 5.30207 0.0144559 5.6383C-0.0436795 6.08661 0.0759842 6.54 0.347122 6.89874C0.470879 7.06248 0.644811 7.20013 0.914753 7.37233C1.3116 7.62548 1.56693 8.05672 1.56691 8.53254C1.56688 9.0083 1.31155 9.43948 0.914751 9.6926C0.644763 9.86482 0.47081 10.0025 0.34704 10.1662C0.075902 10.525 -0.0437617 10.9784 0.0143737 11.4267C0.0579753 11.7629 0.253596 12.1069 0.644837 12.7949C1.03608 13.4828 1.2317 13.8268 1.49671 14.0333C1.85007 14.3085 2.29666 14.43 2.73824 14.371C2.93981 14.3441 3.14421 14.26 3.42611 14.1087C3.84043 13.8864 4.33592 13.8775 4.74177 14.1154C5.14762 14.3533 5.38778 14.7934 5.40529 15.2688C5.41721 15.5923 5.44766 15.814 5.52546 16.0047C5.69591 16.4225 6.02284 16.7544 6.43433 16.9274C6.74294 17.0572 7.13418 17.0572 7.91667 17.0572C8.69915 17.0572 9.09039 17.0572 9.39901 16.9274C9.8105 16.7544 10.1374 16.4225 10.3079 16.0047C10.3857 15.814 10.4161 15.5922 10.428 15.2687C10.4456 14.7933 10.6857 14.3533 11.0915 14.1154C11.4973 13.8775 11.9928 13.8863 12.4072 14.1087C12.6891 14.2599 12.8934 14.344 13.095 14.371C13.5366 14.43 13.9832 14.3085 14.3365 14.0332C14.6016 13.8268 14.7972 13.4828 15.1884 12.7948C15.5797 12.1068 15.7753 11.7629 15.8189 11.4266C15.877 10.9783 15.7573 10.5249 15.4862 10.1662C15.3624 10.0024 15.1885 9.86477 14.9185 9.69256C14.5217 9.43944 14.2664 9.00822 14.2664 8.53244C14.2664 8.05671 14.5218 7.62556 14.9185 7.37247C15.1885 7.20023 15.3625 7.06257 15.4863 6.8988C15.7574 6.54006 15.8771 6.08667 15.819 5.63836C15.7754 5.30212 15.5797 4.95814 15.1885 4.27017C14.7973 3.58219 14.6016 3.23821 14.3366 3.03175C13.9833 2.75649 13.5367 2.635 13.0951 2.69402C12.8935 2.72096 12.6891 2.80507 12.4072 2.95633C11.9929 3.17866 11.4974 3.18754 11.0916 2.94966C10.6857 2.71177 10.4456 2.27168 10.428 1.79624C10.4161 1.47276 10.3857 1.251 10.3079 1.0603C10.1374 0.642542 9.8105 0.310635 9.39901 0.137593ZM7.91667 11.0899C9.30789 11.0899 10.4357 9.94494 10.4357 8.53252C10.4357 7.1201 9.30789 5.97511 7.91667 5.97511C6.52544 5.97511 5.39763 7.1201 5.39763 8.53252C5.39763 9.94494 6.52544 11.0899 7.91667 11.0899Z" fill="white"/>
</svg>
