<svg width="12" height="8" viewBox="0 0 12 8" fill="none" xmlns="http://www.w3.org/2000/svg">
<path fill-rule="evenodd" clip-rule="evenodd" d="M0.139796 2.9648C0.348492 2.74603 0.715051 2.72069 0.958529 2.90821L5.99998 6.79109L11.0414 2.90821C11.2849 2.72069 11.6515 2.74603 11.8602 2.96481C12.0689 3.18358 12.0407 3.51296 11.7972 3.70048L6.37785 7.87439C6.16041 8.04187 5.83954 8.04187 5.6221 7.87439L0.202776 3.70048C-0.0407025 3.51296 -0.0688993 3.18358 0.139796 2.9648Z" fill="#287EFF"/>
<path d="M0.58068 0C0.337695 0 0.120407 0.13595 0.0361046 0.340724C-0.0481981 0.545497 0.0183153 0.775782 0.202803 0.917873L5.62213 5.09179C5.83957 5.25926 6.16044 5.25926 6.37788 5.09179L11.7972 0.917873C11.9817 0.775782 12.0482 0.545497 11.9639 0.340724C11.8796 0.13595 11.6623 0 11.4193 0H0.58068Z" fill="#287EFF"/>
</svg>
