<svg width="16" height="19" viewBox="0 0 16 19" fill="none" xmlns="http://www.w3.org/2000/svg">
<path fill-rule="evenodd" clip-rule="evenodd" d="M0.995837 1.65738C0 2.67608 0 4.31567 0 7.59483V11.0729C0 14.3521 0 15.9917 0.995837 17.0104C1.99167 18.0291 3.59445 18.0291 6.8 18.0291H8.5C11.7056 18.0291 13.3083 18.0291 14.3042 17.0104C15.284 16.008 15.2997 14.4045 15.3 11.2295L12.9045 13.6801C12.6751 13.9148 12.4873 14.1071 12.2752 14.2763C12.0267 14.4746 11.7579 14.6445 11.4734 14.7832C11.2306 14.9016 10.9785 14.9875 10.6707 15.0923L8.70578 15.7623C8.06949 15.9793 7.36797 15.8099 6.89369 15.3247C6.41942 14.8395 6.25382 14.1219 6.46592 13.471L6.69839 12.7576L7.10224 11.5182L7.12087 11.461C7.22335 11.1461 7.30728 10.8882 7.423 10.6398C7.55858 10.3488 7.72475 10.0738 7.91857 9.81956C8.08401 9.60259 8.27196 9.41046 8.50144 9.17588L11.9069 5.69222L12.852 4.72545L12.9601 4.61483C13.5682 3.99277 14.3653 3.68183 15.1623 3.68199C15.0337 2.78591 14.785 2.14926 14.3042 1.65738C13.3083 0.638672 11.7056 0.638672 8.5 0.638672H6.8C3.59445 0.638672 1.99167 0.638672 0.995837 1.65738ZM3.6125 6.72531C3.6125 6.36514 3.89792 6.07317 4.25 6.07317H9.775C10.1271 6.07317 10.4125 6.36514 10.4125 6.72531C10.4125 7.08548 10.1271 7.37745 9.775 7.37745H4.25C3.89792 7.37745 3.6125 7.08548 3.6125 6.72531ZM3.6125 10.2034C3.6125 9.84322 3.89792 9.55125 4.25 9.55125H6.375C6.72708 9.55125 7.0125 9.84322 7.0125 10.2034C7.0125 10.5636 6.72708 10.8555 6.375 10.8555H4.25C3.89792 10.8555 3.6125 10.5636 3.6125 10.2034ZM3.6125 13.6815C3.6125 13.3213 3.89792 13.0293 4.25 13.0293H5.525C5.87708 13.0293 6.1625 13.3213 6.1625 13.6815C6.1625 14.0416 5.87708 14.3336 5.525 14.3336H4.25C3.89792 14.3336 3.6125 14.0416 3.6125 13.6815Z" fill="white"/>
</svg>
