<svg width="18" height="18" viewBox="0 0 18 18" fill="none" xmlns="http://www.w3.org/2000/svg">
<path fill-rule="evenodd" clip-rule="evenodd" d="M0.0624151 2.93255C0 3.26336 0 3.66049 0 4.45477V10.8C0 14.1941 0 15.8912 1.05442 16.9456C2.10883 18 3.80589 18 7.2 18H10.8C14.1941 18 15.8912 18 16.9456 16.9456C18 15.8912 18 14.1941 18 10.8V8.81811C18 6.44898 18 5.26442 17.3075 4.49445C17.2438 4.42362 17.1764 4.35622 17.1056 4.29252C16.3356 3.6 15.151 3.6 12.7819 3.6H12.4456C11.4073 3.6 10.8881 3.6 10.4043 3.4621C10.1386 3.38634 9.88239 3.28024 9.64091 3.14588C9.2013 2.9013 8.8342 2.5342 8.1 1.8L7.60477 1.30477C7.35869 1.05869 7.23565 0.935653 7.10635 0.828463C6.54887 0.366332 5.86499 0.0830576 5.14401 0.0156377C4.97679 0 4.80278 0 4.45477 0C3.66049 0 3.26336 0 2.93255 0.0624151C1.47628 0.337176 0.337176 1.47628 0.0624151 2.93255ZM9 8.325C9.37279 8.325 9.675 8.62721 9.675 9V10.125H10.8C11.1728 10.125 11.475 10.4272 11.475 10.8C11.475 11.1728 11.1728 11.475 10.8 11.475H9.675V12.6C9.675 12.9728 9.37279 13.275 9 13.275C8.62721 13.275 8.325 12.9728 8.325 12.6V11.475H7.2C6.82721 11.475 6.525 11.1728 6.525 10.8C6.525 10.4272 6.82721 10.125 7.2 10.125H8.325V9C8.325 8.62721 8.62721 8.325 9 8.325Z" fill="#283047"/>
</svg>
