<svg width="26" height="27" viewBox="0 0 26 27" fill="none" xmlns="http://www.w3.org/2000/svg">
<path fill-rule="evenodd" clip-rule="evenodd" d="M26 13.5153C26 20.8599 20.1797 26.8139 13 26.8139C5.8203 26.8139 0 20.8599 0 13.5153C0 6.17075 5.8203 0.216797 13 0.216797C20.1797 0.216797 26 6.17075 26 13.5153ZM16.9 9.52577C16.9 11.7291 15.1539 13.5153 13 13.5153C10.8461 13.5153 9.1 11.7291 9.1 9.52577C9.1 7.3224 10.8461 5.53621 13 5.53621C15.1539 5.53621 16.9 7.3224 16.9 9.52577ZM13 24.8191C15.3192 24.8191 17.4716 24.0882 19.249 22.8392C20.034 22.2876 20.3695 21.2368 19.9131 20.3817C18.9669 18.609 17.0173 17.5049 12.9999 17.5049C8.98259 17.5049 7.03296 18.609 6.08678 20.3816C5.63036 21.2367 5.96583 22.2875 6.75084 22.8391C8.52824 24.0881 10.6807 24.8191 13 24.8191Z" fill="#283047"/>
</svg>
